<svg width="70" height="70" viewBox="0 0 70 70" fill="none" xmlns="http://www.w3.org/2000/svg">
<path d="M60.2377 5.08016C59.6908 5.6366 59.6772 6.53485 60.2377 7.09129L64.1069 10.9577C64.6674 11.521 65.5697 11.5264 66.1303 10.9714C66.6772 10.4149 66.6772 9.50573 66.1166 8.9493L62.2474 5.08016C61.6459 4.52235 60.7572 4.58934 60.2377 5.08016ZM58.7612 8.51999C55.4799 10.5571 52.6498 13.2642 50.4896 16.4743L54.6869 20.6579C57.8998 18.4977 60.6068 15.6813 62.6439 12.3892L58.7612 8.51999ZM25.3471 18.1696L30.6244 20.5622L31.6088 18.2107C31.6088 18.2107 31.5814 18.2107 31.5404 18.1969C29.3666 17.404 27.5619 17.7458 25.3471 18.1696ZM36.3393 18.1559C35.3686 18.4431 34.2474 18.9489 32.8393 18.7302L32.0873 20.945C33.6459 21.2868 34.9447 20.9724 36.0931 20.6169C36.7768 20.4802 37.6381 19.9743 38.2533 20.2204C38.4311 20.2887 38.5951 20.4528 38.7591 20.6852C39.2377 21.3005 39.0599 22.0524 38.6362 22.9274C37.6791 24.8825 35.4232 27.2751 32.5248 30.1599L34.1381 31.7732C37.2553 28.6559 39.6479 26.0446 40.6732 23.9392C41.5619 22.1208 41.5346 20.5759 40.5912 19.3044C40.0444 18.5934 39.4838 18.2243 38.9096 18.0329C38.0482 17.7594 37.1049 17.9372 36.3393 18.1559ZM49.0404 18.238L47.4955 19.7966L51.3647 23.6657L52.9232 22.1071L49.0404 18.238ZM45.8822 21.4099L43.517 23.7751C43.3666 24.1989 43.1889 24.6227 42.9838 25.0602C41.8627 27.3434 39.3334 30.2145 35.9564 33.5915L38.7045 36.3259L49.7514 25.279L45.8822 21.4099ZM30.8431 31.5954L29.558 32.8806L31.3354 34.6716L32.6205 33.3864L30.8431 31.5954ZM27.9447 34.4938L26.6869 35.7517L28.4643 37.529L29.7221 36.2711L27.9447 34.4938ZM33.851 34.6169L23.9662 44.488L27.2612 47.7829L37.1322 37.8982L33.851 34.6169ZM25.0737 37.3649L23.8158 38.6227L25.5931 40.4001L26.851 39.1423L25.0737 37.3649ZM22.2025 40.236L20.9584 41.4802L22.7357 43.2575L23.9799 42.0134L22.2025 40.236ZM18.8256 43.613L17.5678 44.8708L18.9076 48.0153C19.099 48.4392 19.0033 48.945 18.6752 49.2732L14.2455 53.7028C13.7944 54.1403 13.0738 54.1403 12.6363 53.7028C12.1851 53.2517 12.1851 52.5407 12.6363 52.0895L16.515 48.2067L15.8314 46.6071L8.45272 53.9899L14.7514 60.279L25.1283 49.902L18.8256 43.613ZM6.3295 56.1501L3.45703 61.0173L7.76091 65.3102L12.6227 62.4392L6.3295 56.1501Z" fill="url(#paint0_linear_357_291)"/>
<defs>
<linearGradient id="paint0_linear_357_291" x1="3.45703" y1="34.9984" x2="66.5387" y2="34.9984" gradientUnits="userSpaceOnUse">
<stop stop-color="#ED04BC"/>
<stop offset="0.529219" stop-color="#B133E8"/>
<stop offset="1" stop-color="#6531EF"/>
</linearGradient>
</defs>
</svg>
