<svg width="64" height="64" viewBox="0 0 64 64" fill="none" xmlns="http://www.w3.org/2000/svg">
<g clip-path="url(#clip0_354_369)">
<path d="M58.0765 0.000376187C57.4464 0.000376187 56.7867 0.212068 56.3067 0.692068L55.3073 1.77022L54.8445 1.38622C54.7303 1.26694 54.5931 1.172 54.4413 1.10715C54.2894 1.0423 54.126 1.00886 53.9608 1.00886C53.7957 1.00886 53.6322 1.0423 53.4804 1.10715C53.3285 1.172 53.1913 1.26694 53.0771 1.38622C52.9578 1.50042 52.8629 1.6376 52.7981 1.78947C52.7332 1.94134 52.6998 2.10477 52.6998 2.26991C52.6998 2.43506 52.7332 2.59849 52.7981 2.75036C52.8629 2.90223 52.9578 3.0394 53.0771 3.15361L53.4611 3.61638L52.8457 4.23176L52.383 3.8453C52.2688 3.72601 52.1316 3.63108 51.9797 3.56623C51.8279 3.50137 51.6644 3.46794 51.4993 3.46794C51.3341 3.46794 51.1707 3.50137 51.0188 3.56623C50.867 3.63108 50.7298 3.72601 50.6156 3.8453C50.4955 3.95957 50.3999 4.09704 50.3346 4.24937C50.2693 4.4017 50.2356 4.56571 50.2356 4.73145C50.2356 4.89719 50.2693 5.06121 50.3346 5.21354C50.3999 5.36587 50.4955 5.50334 50.6156 5.61761L50.9996 6.07791L50.5368 6.53822C50.2383 6.83367 50.0239 7.20334 49.9158 7.60917C49.8076 8.015 49.8096 8.44232 49.9214 8.84715L39.1522 19.6164C36.9294 17.6718 33.567 15.385 29.9214 15.385C28.3042 15.385 26.6427 15.8773 24.9984 16.9998C21.3504 19.4933 22.0494 23.2718 19.7676 25.4625C17.2076 27.9241 10.2094 25.9401 3.76758 32.3844C-2.67426 38.8238 0.18112 47.7321 8.38297 55.6164C13.3011 60.7314 18.5934 63.769 23.4599 63.769C26.3916 63.769 29.1904 62.6564 31.615 60.2318C38.0568 53.7899 36.0728 46.7967 38.5368 44.2318C40.7276 41.9548 44.5799 42.7278 47.0759 39.0773C50.7362 33.7284 47.2039 28.0718 44.383 24.8471L55.1522 14.0779C55.9645 14.2847 56.8236 14.1001 57.4611 13.4625L57.9214 12.9998L58.3842 13.3862C58.4902 13.5057 58.6202 13.6016 58.7656 13.6678C58.9111 13.7339 59.0687 13.7688 59.2285 13.7702C59.5751 13.7679 59.9067 13.629 60.1516 13.3838C60.2709 13.2696 60.3658 13.1324 60.4307 12.9805C60.4955 12.8286 60.5289 12.6652 60.5289 12.5001C60.5289 12.3349 60.4955 12.1715 60.4307 12.0196C60.3658 11.8677 60.2709 11.7306 60.1516 11.6164L59.7676 11.1536L60.383 10.5382L60.8457 10.9247C60.9518 11.0442 61.0817 11.1401 61.2272 11.2062C61.3726 11.2724 61.5303 11.3073 61.69 11.3087C62.0366 11.3063 62.3683 11.1675 62.6131 10.9222C62.7324 10.808 62.8273 10.6708 62.8922 10.519C62.957 10.3671 62.9905 10.2037 62.9905 10.0385C62.9905 9.87339 62.957 9.70996 62.8922 9.55808C62.8273 9.40621 62.7324 9.26904 62.6131 9.15484L62.2291 8.69207L63.3073 7.69268C63.5358 7.46613 63.7171 7.19657 63.8409 6.89957C63.9646 6.60256 64.0284 6.28398 64.0284 5.96222C64.0284 5.64046 63.9646 5.32188 63.8409 5.02488C63.7171 4.72787 63.5358 4.45831 63.3073 4.23176L59.7651 0.689607C59.5451 0.466197 59.282 0.289883 58.9917 0.171395C58.7014 0.052906 58.39 -0.00528033 58.0765 0.000376187ZM57.9214 2.92468C58.111 2.92468 58.3153 2.93453 58.4605 3.0773C58.5992 3.22248 58.6767 3.41557 58.6767 3.61638C58.6767 3.81719 58.5992 4.01027 58.4605 4.15545L53.5374 9.07853C53.3944 9.22216 53.201 9.30429 52.9984 9.30745C52.7964 9.30198 52.6043 9.21915 52.4617 9.07607C52.3237 8.93101 52.2468 8.73844 52.2468 8.53822C52.2468 8.338 52.3237 8.14544 52.4617 8.00038L57.3848 3.0773C57.5276 2.93453 57.7344 2.92468 57.9214 2.92468ZM60.383 5.38622C60.5725 5.38622 60.7768 5.39361 60.922 5.53884C61.0613 5.68373 61.1391 5.87692 61.1391 6.07791C61.1391 6.27891 61.0613 6.4721 60.922 6.61699L55.999 11.5401C55.8554 11.6828 55.6623 11.7648 55.4599 11.769C55.2583 11.7642 55.0663 11.6822 54.9233 11.5401C54.7845 11.3949 54.7071 11.2018 54.7071 11.001C54.7071 10.8002 54.7845 10.6071 54.9233 10.4619L59.8464 5.53884C59.9891 5.39607 60.1959 5.38622 60.383 5.38622ZM29.9214 18.8435C32.2845 18.8435 34.7805 20.4484 36.6907 22.0755L28.4593 30.3068C28.2771 30.2871 28.1097 30.2281 27.9227 30.2281C26.3738 30.2333 24.8898 30.8509 23.7945 31.9461C22.6993 33.0413 22.0817 34.5253 22.0765 36.0742C22.0817 37.6231 22.6993 39.1071 23.7945 40.2023C24.8898 41.2976 26.3738 41.9152 27.9227 41.9204C29.4716 41.9152 30.9555 41.2976 32.0508 40.2023C33.146 39.1071 33.7636 37.6231 33.7688 36.0742C33.7688 35.8871 33.7097 35.7198 33.6925 35.5351L41.9977 27.2299C44.1344 29.7062 46.5467 33.689 44.2304 37.0761C43.4771 38.1739 42.5294 38.5776 40.8457 39.1511C39.3639 39.6558 37.5104 40.2711 35.999 41.8441C34.3399 43.5696 33.9707 45.8391 33.5374 48.2293C32.991 51.2299 32.378 54.6219 29.1534 57.8441C27.4599 59.5376 25.594 60.3819 23.4599 60.3819C19.7257 60.3819 15.2457 57.8071 10.8445 53.2287C10.8203 53.202 10.7948 53.1766 10.7682 53.1524C6.22666 48.793 3.65189 44.3327 3.61497 40.6158C3.59035 38.4471 4.43712 36.5665 6.15281 34.8459C9.37743 31.6213 12.7694 31.0059 15.7676 30.4619C18.1577 30.0287 20.4297 29.5831 22.1528 27.9241C23.7134 26.4275 24.3313 24.6182 24.8457 23.1536C25.4365 21.4748 25.8057 20.6084 26.9233 19.8453C27.8784 19.193 28.8679 18.8435 29.9214 18.8435ZM13.69 40.0742C13.4879 40.0787 13.2954 40.1617 13.1534 40.3056L11.615 41.8465C11.4739 41.9905 11.395 42.1841 11.395 42.3856C11.395 42.5872 11.4739 42.7807 11.615 42.9247L21.0747 52.3844C21.3651 52.6724 21.8624 52.6724 22.1528 52.3844L23.6913 50.8459C23.8304 50.7014 23.9081 50.5086 23.9081 50.3081C23.9081 50.1075 23.8304 49.9147 23.6913 49.7702L14.2291 40.3081C14.0871 40.1641 13.8947 40.0811 13.6925 40.0767L13.69 40.0742Z" fill="url(#paint0_linear_354_369)"/>
</g>
<defs>
<linearGradient id="paint0_linear_354_369" x1="0.234375" y1="31.8845" x2="64.0284" y2="31.8845" gradientUnits="userSpaceOnUse">
<stop stop-color="#ED04BC"/>
<stop offset="0.529219" stop-color="#B133E8"/>
<stop offset="1" stop-color="#6531EF"/>
</linearGradient>
<clipPath id="clip0_354_369">
<rect width="64" height="64" fill="white"/>
</clipPath>
</defs>
</svg>
