<svg width="64" height="64" viewBox="0 0 64 64" fill="none" xmlns="http://www.w3.org/2000/svg">
<path d="M59.218 37.233C61.335 35.632 61.886 34.295 61.938 34.155C61.9791 34.045 62.0001 33.9285 62 33.811V28.265C62 22.298 50.838 18.389 38.381 17.383L56.742 7.182C57.0162 7.03105 57.2571 6.8262 57.45 6.57976C57.643 6.33333 57.7842 6.0504 57.865 5.748C57.9475 5.44571 57.9685 5.12993 57.9268 4.81937C57.885 4.50881 57.7814 4.20978 57.622 3.94L57.167 3.165C56.9588 2.81089 56.6619 2.51719 56.3056 2.31288C55.9492 2.10858 55.5458 2.00074 55.135 2C54.806 2 54.487 2.089 54.187 2.222L54.181 2.206L54.065 2.273C54.031 2.291 53.993 2.297 53.96 2.317L32 15.109L10.039 2.317C9.68198 2.10907 9.27615 1.99967 8.863 2C8.029 2 7.251 2.447 6.83 3.166L6.376 3.942C6.2165 4.21137 6.11279 4.51006 6.07105 4.82032C6.0293 5.13057 6.05037 5.44605 6.133 5.748C6.21408 6.05055 6.35543 6.33361 6.54858 6.58019C6.74172 6.82678 6.98268 7.03181 7.257 7.183L25.617 17.383C13.161 18.389 2 22.299 2 28.265V33.811C2 33.929 2.021 34.045 2.063 34.156C2.115 34.295 2.666 35.634 4.783 37.233V41.873L4.123 42.495C2.714 43.819 2 45.252 2 46.749V52.295C1.99996 52.4132 2.02131 52.5304 2.063 52.641C2.115 52.78 2.681 54.114 4.783 55.708V57.378C4.783 57.89 6.001 58.304 7.505 58.304C8.108 58.304 8.658 58.235 9.109 58.122C11.741 59.226 15.333 60.239 20.208 60.882V61.076C20.208 61.586 21.425 62 22.93 62C24.109 62 25.104 61.743 25.483 61.387C27.486 61.513 29.643 61.589 32.003 61.589C34.363 61.589 36.519 61.513 38.523 61.387C38.897 61.743 39.892 62 41.072 62C42.575 62 43.794 61.586 43.794 61.076V60.882C48.669 60.238 52.261 59.227 54.894 58.123C55.343 58.234 55.894 58.304 56.497 58.304C58 58.304 59.219 57.89 59.219 57.378V55.707C61.321 54.113 61.887 52.779 61.939 52.641C61.979 52.529 62 52.413 62 52.295V46.749C62 45.305 61.288 43.893 59.884 42.55L59.218 41.912V37.233ZM54.686 3.584C54.8927 3.46481 55.1382 3.43209 55.3689 3.49295C55.5996 3.55382 55.797 3.70335 55.918 3.909L56.373 4.686C56.433 4.78693 56.472 4.89891 56.4879 5.01525C56.5037 5.1316 56.4959 5.24993 56.465 5.36321C56.4341 5.47649 56.3807 5.58239 56.3081 5.67461C56.2354 5.76683 56.1449 5.84348 56.042 5.9L20.53 25.627C20.305 26.055 19.887 26.481 19.329 26.799C18.806 27.097 18.26 27.244 17.793 27.244C17.295 27.244 16.887 27.077 16.692 26.745C16.315 26.1 16.882 25.08 17.962 24.467C18.483 24.17 19.027 24.026 19.494 24.026L19.592 24.028L29.841 18.058L31.999 16.8L54.686 3.584ZM48.781 25.607C48.685 25.247 48.499 24.903 48.27 24.573C52.838 25.738 56.31 27.373 58.01 29.276C56.363 32.889 46.145 36.531 32 36.531C17.855 36.531 7.637 32.889 5.989 29.276C7.689 27.373 11.161 25.739 15.727 24.573C15.498 24.903 15.312 25.247 15.216 25.607C15.039 26.269 15.118 26.937 15.44 27.487C15.897 28.264 16.753 28.707 17.793 28.707C18.525 28.707 19.324 28.482 20.042 28.073C20.6397 27.7402 21.1572 27.2804 21.558 26.726L28.626 22.801C29.7499 22.7489 30.8749 22.7212 32 22.718C33.146 22.718 34.266 22.752 35.372 22.801L42.44 26.726C42.811 27.252 43.336 27.721 43.956 28.073C44.674 28.482 45.473 28.707 46.205 28.707C47.245 28.707 48.101 28.265 48.556 27.489C48.879 26.938 48.958 26.27 48.781 25.607ZM47.307 26.745C47.112 27.077 46.703 27.244 46.205 27.244C45.738 27.244 45.192 27.097 44.67 26.799C44.11 26.481 43.692 26.055 43.469 25.627L33.502 20.092L35.625 18.912L44.407 24.027L44.504 24.025C44.971 24.025 45.515 24.17 46.036 24.466C47.115 25.08 47.683 26.101 47.307 26.745ZM7.956 5.9C7.85332 5.84338 7.76306 5.76672 7.69055 5.67456C7.61805 5.58241 7.56478 5.47664 7.53392 5.36352C7.50305 5.2504 7.49521 5.13223 7.51085 5.01602C7.5265 4.89981 7.56531 4.78793 7.625 4.687L8.08 3.909C8.20121 3.70355 8.39856 3.55419 8.62922 3.49335C8.85987 3.4325 9.10522 3.46507 9.312 3.584L30.552 15.958L28.359 17.234L7.956 5.9ZM26.557 18.28L24.693 19.366C13.214 20.452 4.783 24.02 4.783 28.264C4.783 33.368 16.969 37.506 32.001 37.506C47.031 37.506 59.219 33.367 59.219 28.264C59.219 24.02 50.785 20.451 39.307 19.366L37.443 18.28C50.875 19.173 61.034 23.301 61.034 28.264C61.034 30.568 58.845 32.69 55.158 34.396C54.554 34.512 54.101 34.705 53.9 34.935C48.575 37.076 40.742 38.431 32 38.431C23.257 38.431 15.425 37.077 10.102 34.936C9.901 34.706 9.448 34.513 8.843 34.397C5.157 32.691 2.968 30.569 2.968 28.265C2.968 23.302 13.125 19.173 26.557 18.28ZM43.588 38.542C47.361 37.966 50.86 37.11 53.775 36.001V38.894C53.775 38.943 53.796 38.991 53.817 39.038C51.369 39.986 48.114 40.85 43.795 41.423V38.895C43.794 38.77 43.72 38.651 43.588 38.542ZM38.351 39.148V41.937C36.4 42.056 34.299 42.127 32 42.127C29.701 42.127 27.601 42.057 25.649 41.936V39.148C27.745 39.318 29.877 39.406 32 39.406C34.123 39.406 36.255 39.318 38.351 39.148ZM20.412 38.542C20.28 38.651 20.206 38.77 20.206 38.894V41.422C15.887 40.849 12.632 39.984 10.183 39.038C10.2074 38.9933 10.2221 38.9438 10.226 38.893V36C13.14 37.11 16.639 37.966 20.412 38.542ZM2.968 33.811V31.185C3.762 32.342 5.017 33.392 6.631 34.326C5.559 34.449 4.782 34.792 4.782 35.198V35.997C3.334 34.752 2.968 33.811 2.968 33.811ZM5.629 53.022C5.112 53.189 4.782 53.42 4.782 53.681V54.482C3.334 53.236 2.968 52.294 2.968 52.294V49.67C3.583 50.567 4.504 51.393 5.629 52.155V53.022ZM5.629 50.982C3.935 49.692 2.968 48.261 2.968 46.749C2.968 45.503 3.611 44.311 4.782 43.207V46.749C4.782 47.534 5.085 48.296 5.629 49.023V50.982ZM9.258 57.058C8.981 57.175 8.379 57.329 7.504 57.329C6.629 57.329 6.028 57.176 5.75 57.058V55.4C6.32607 55.5258 6.91438 55.5868 7.504 55.582C8.101 55.582 8.71 55.527 9.258 55.4V57.058ZM6.597 53.666V39.762C6.882 39.796 7.185 39.819 7.504 39.819C7.823 39.819 8.126 39.797 8.411 39.762V53.666C8.411 53.932 8.005 54.144 7.504 54.144C7.003 54.144 6.597 53.932 6.597 53.666ZM9.258 38.572C8.981 38.69 8.379 38.843 7.504 38.843C6.629 38.843 6.028 38.69 5.75 38.572V36.914C6.32603 37.0401 6.91434 37.1015 7.504 37.097C8.101 37.097 8.71 37.041 9.258 36.914V38.572ZM20.206 57.378V59.905C15.89 59.332 12.631 58.469 10.183 57.524C10.2074 57.4789 10.2221 57.4291 10.226 57.378V54.485C13.14 55.595 16.639 56.451 20.412 57.027C20.28 57.136 20.206 57.255 20.206 57.378ZM21.053 56.161C16.811 55.555 13.063 54.611 10.102 53.421C9.967 53.267 9.711 53.131 9.379 53.024V51.876C12.245 53.332 16.285 54.495 21.053 55.208V56.161ZM24.682 60.754C24.403 60.872 23.803 61.025 22.928 61.025C22.053 61.025 21.451 60.873 21.174 60.754V59.097C21.7501 59.2227 22.3384 59.2841 22.928 59.28C23.524 59.28 24.134 59.223 24.682 59.097V60.754ZM22.021 57.364V43.459C22.6234 43.5329 23.2326 43.5329 23.835 43.459V57.364C23.835 57.628 23.429 57.841 22.928 57.841C22.427 57.841 22.021 57.628 22.021 57.364ZM24.682 42.269C24.403 42.387 23.803 42.54 22.928 42.54C22.053 42.54 21.451 42.388 21.174 42.269V40.613C21.7502 40.7378 22.3384 40.7989 22.928 40.795C23.5176 40.7988 24.1058 40.7378 24.682 40.613V42.269ZM38.351 60.426C36.401 60.545 34.295 60.614 32 60.614C29.705 60.614 27.6 60.545 25.649 60.426V57.634C27.745 57.803 29.877 57.892 32 57.892C34.123 57.892 36.255 57.803 38.351 57.634V60.426ZM39.197 56.589C36.893 56.796 34.489 56.916 32 56.916C29.511 56.916 27.106 56.796 24.803 56.589V55.651C27.099 55.866 29.503 55.992 32 55.992C34.497 55.992 36.901 55.866 39.197 55.651V56.589ZM42.826 60.754C42.548 60.872 41.947 61.025 41.072 61.025C40.197 61.025 39.596 60.873 39.318 60.754V59.097C39.8941 59.2226 40.4824 59.2839 41.072 59.28C41.669 59.28 42.278 59.223 42.826 59.097V60.754ZM40.165 57.364V43.459C40.7674 43.533 41.3766 43.533 41.979 43.459V57.364C41.979 57.628 41.573 57.841 41.072 57.841C40.571 57.841 40.165 57.628 40.165 57.364ZM42.826 42.269C42.548 42.387 41.947 42.54 41.072 42.54C40.197 42.54 39.596 42.388 39.318 42.269V40.613C39.8942 40.7377 40.4824 40.7988 41.072 40.795C41.669 40.795 42.278 40.738 42.826 40.613V42.269ZM43.794 59.905V57.378C43.794 57.255 43.72 57.136 43.589 57.027C47.361 56.451 50.86 55.595 53.775 54.485V57.378C53.775 57.428 53.796 57.476 53.818 57.524C51.37 58.47 48.11 59.332 43.794 59.905ZM54.621 53.023C54.289 53.13 54.033 53.266 53.898 53.42C50.936 54.61 47.189 55.553 42.947 56.16V55.206C47.715 54.493 51.755 53.33 54.621 51.874V53.023ZM58.25 57.058C57.973 57.175 57.371 57.329 56.496 57.329C55.621 57.329 55.019 57.176 54.742 57.058V55.4C55.29 55.527 55.899 55.582 56.496 55.582C57.093 55.582 57.702 55.527 58.25 55.4V57.058ZM55.589 53.666V39.762C55.874 39.796 56.177 39.819 56.496 39.819C56.815 39.819 57.118 39.797 57.403 39.762V53.666C57.403 53.932 56.997 54.144 56.496 54.144C55.995 54.144 55.589 53.932 55.589 53.666ZM58.25 38.572C57.973 38.69 57.371 38.843 56.496 38.843C55.621 38.843 55.019 38.691 54.742 38.572V36.914C55.29 37.041 55.899 37.097 56.496 37.097C57.093 37.097 57.702 37.041 58.25 36.914V38.572ZM61.032 52.295C61.032 52.295 60.666 53.237 59.218 54.483V53.681C59.218 53.42 58.888 53.189 58.371 53.022V52.155C59.496 51.392 60.417 50.567 61.032 49.67V52.295ZM61.032 46.749C61.032 48.262 60.065 49.692 58.371 50.982V49.023C58.915 48.295 59.218 47.534 59.218 46.749V43.258C60.355 44.346 61.032 45.522 61.032 46.749ZM57.369 34.325C58.983 33.391 60.238 32.342 61.032 31.184V33.81C61.032 33.81 60.666 34.75 59.218 35.996V35.197C59.218 34.791 58.441 34.448 57.369 34.325Z" fill="url(#paint0_linear_353_363)"/>
<defs>
<linearGradient id="paint0_linear_353_363" x1="2" y1="32" x2="62" y2="32" gradientUnits="userSpaceOnUse">
<stop stop-color="#ED04BC"/>
<stop offset="0.529219" stop-color="#B133E8"/>
<stop offset="1" stop-color="#6531EF"/>
</linearGradient>
</defs>
</svg>
