<svg width="64" height="64" viewBox="0 0 64 64" fill="none" xmlns="http://www.w3.org/2000/svg">
<path d="M13.8758 7.28711L2.95453 7.33711L2.87828 8.37461L24.0508 11.5746L24.2758 10.5621L13.8758 7.28711ZM52.7258 9.63711L52.6883 13.3496L53.3133 13.2496L53.9258 13.3496L53.8883 9.63711H52.7258ZM12.042 11.5996L11.8158 13.2246L7.66953 16.5246L7.89953 30.9746L8.66953 25.9246L9.86328 25.6371H9.89828L9.76953 17.5121L13.7633 14.3371L14.1008 11.9121L12.042 11.5996ZM53.3133 14.8371L44.9883 16.1371L45.0633 17.1746H61.5633L61.6383 16.1371L53.3133 14.8371ZM45.0633 18.9996L44.9883 20.0371L53.3133 21.3371L61.6383 20.0371L61.5633 18.9996H45.0633ZM52.6008 22.8121L52.5758 25.4121C52.9258 25.4746 53.2758 25.5621 53.6383 25.6371L54.0508 25.7371L54.0258 22.8121L53.3133 22.9246L52.6008 22.8121ZM16.6758 26.6496C14.6133 26.6246 12.4883 26.8871 10.2883 27.4121L9.93078 29.7621C12.8383 29.3496 19.4258 28.8996 25.8758 31.5871C26.3758 31.3871 26.9008 31.1996 27.4258 31.0496L27.5758 30.0496C24.2508 27.7746 20.6008 26.6996 16.6758 26.6496ZM46.8258 26.6496C42.9008 26.6996 39.2508 27.7746 35.9258 30.0496L36.0758 31.0496C36.6008 31.1996 37.1258 31.3871 37.6258 31.5871C44.0758 28.8996 50.6633 29.3496 53.5758 29.7621L53.2133 27.4121C51.0133 26.8871 48.8883 26.6246 46.8258 26.6496ZM14.5633 31.5246C12.3245 31.5246 10.5508 31.7496 9.60203 31.9121L8.72078 37.6996L17.8383 39.0871C19.1008 36.5496 21.0258 34.3996 23.4008 32.8871C20.2258 31.8246 17.1008 31.5246 14.5633 31.5246ZM48.9383 31.5246C46.4008 31.5246 43.2758 31.8246 40.1008 32.8871C42.4758 34.3996 44.4008 36.5496 45.6633 39.0871L54.7758 37.6996L53.9008 31.9121C52.9508 31.7496 51.1758 31.5246 48.9383 31.5246ZM31.7508 32.7746C25.5133 32.7746 20.4508 37.8371 20.4508 44.0746C20.4508 50.3121 25.5133 55.3746 31.7508 55.3746C37.9883 55.3746 43.0508 50.3121 43.0508 44.0746C43.0508 37.8371 37.9883 32.7746 31.7508 32.7746ZM8.03453 39.4371L8.20453 50.1246L2.36328 60.9996H4.73078L8.88578 53.2496L10.7845 60.9996H12.9383L10.2895 50.2496L10.1233 39.7496L8.03453 39.4371ZM54.2008 39.6246L52.4258 39.8996L52.3258 49.1621L49.3008 56.1246L50.2258 59.2496L53.3133 52.1246L57.1758 60.9996H59.4508L54.3008 49.1621L54.2008 39.6246ZM19.2383 41.0746C18.6508 42.5871 18.3383 44.2246 18.3383 45.9371C18.3383 53.3746 24.3508 59.3746 31.7508 59.3746C39.1508 59.3746 45.1633 53.3746 45.1633 45.9371C45.1633 44.2246 44.8508 42.5871 44.2633 41.0746C44.4883 42.0371 44.6133 43.0496 44.6133 44.0746C44.6133 51.1246 38.8508 56.9996 31.7508 56.9996C24.6508 56.9996 18.8883 51.1246 18.8883 44.0746C18.8883 43.0496 19.0133 42.0371 19.2383 41.0746ZM16.9883 50.7496L14.4633 60.9996H17.6758L19.1508 54.9996C18.2258 53.6246 17.4883 52.2496 16.9883 50.7496ZM46.5133 50.7496C46.0133 52.2496 45.2758 53.6246 44.3508 54.9996L45.8258 60.9996H49.0383L46.5133 50.7496Z" fill="url(#paint0_linear_353_361)"/>
<defs>
<linearGradient id="paint0_linear_353_361" x1="2.36328" y1="34.1434" x2="61.6383" y2="34.1434" gradientUnits="userSpaceOnUse">
<stop stop-color="#ED04BC"/>
<stop offset="0.529219" stop-color="#B133E8"/>
<stop offset="1" stop-color="#6531EF"/>
</linearGradient>
</defs>
</svg>
