<svg width="64" height="64" viewBox="0 0 64 64" fill="none" xmlns="http://www.w3.org/2000/svg">
<path d="M28.5242 3.3615C26.6242 3.33025 25.0617 7.544 26.9867 8.3365L28.0992 8.78775L30.3242 6.85025L30.0992 3.91275L29.0117 3.46275C28.8742 3.409 28.7492 3.37775 28.6117 3.36525H28.5242V3.3615ZM45.3242 4.3515H45.0367C44.1117 4.389 43.1242 4.6165 42.1242 5.07025C39.4742 6.279 36.6742 9.154 34.6617 14.5378L21.7992 49.3378L21.7867 49.3628V49.3878C21.8992 49.4503 22.2367 49.6253 22.7867 49.8878C24.0117 50.4878 25.7867 51.8503 26.0492 54.7378V54.8003L25.9242 61.7503H37.9992C37.9867 59.5503 38.1742 57.4378 39.0117 55.3128C40.4742 51.6378 43.9242 48.4503 51.1367 45.6878C51.1367 45.6628 51.1367 45.6878 51.1492 45.6378C51.1867 45.3878 51.1992 44.8878 51.1492 44.2628C51.0242 43.0003 50.6492 41.1503 50.0742 38.9878C48.9242 34.6503 46.9742 28.9628 44.7742 23.3753L44.4742 22.6003L45.1242 22.0753C49.6367 18.5503 51.5117 15.0253 51.8492 12.1303C52.1867 9.24775 51.0367 6.94525 49.1867 5.599C48.0992 4.81025 46.7742 4.35025 45.3242 4.3465V4.3515ZM32.5617 6.55525L32.6492 7.8065L31.6992 8.6315L34.4117 9.74775C34.5617 9.4765 34.7242 9.21275 34.8867 8.9565L35.3867 7.72025L32.5617 6.55525ZM41.1867 8.87525C42.2867 8.87525 43.1867 9.77025 43.1867 10.8753C43.1867 11.9803 42.2867 12.8753 41.1867 12.8753C40.0867 12.8753 39.1867 11.9803 39.1867 10.8753C39.1867 9.77025 40.0867 8.87525 41.1867 8.87525ZM24.0992 15.0878C22.1992 15.0503 20.6117 19.2628 22.5617 20.0628L23.6617 20.5128L25.8867 18.5753L25.6742 15.6253L24.5742 15.1753C24.4367 15.1253 24.3117 15.1003 24.1867 15.0878H24.0992ZM28.1242 18.2753L28.2117 19.5253L27.2617 20.3503L29.7492 21.3628L30.5242 19.2628L28.1242 18.2753ZM37.0742 20.7503C38.1742 20.7503 39.0742 21.6503 39.0742 22.7503C39.0742 23.8503 38.1742 24.7503 37.0742 24.7503C35.9742 24.7503 35.0742 23.8503 35.0742 22.7503C35.0742 21.6503 35.9742 20.7503 37.0742 20.7503ZM19.5992 27.0753C17.6867 27.0378 16.1242 31.2503 18.0492 32.0503L19.1617 32.5003L21.3867 30.5628L21.1617 27.6128L20.0742 27.1628C19.9367 27.1128 19.8117 27.0878 19.6867 27.0753H19.5992ZM23.6242 30.2628L23.7117 31.5128L22.7617 32.3378L25.3117 33.3753L26.0867 31.2753L23.6242 30.2628ZM32.0242 32.6753C33.1242 32.6753 34.0242 33.5753 34.0242 34.6753C34.0242 35.7753 33.1242 36.6753 32.0242 36.6753C30.9242 36.6753 30.0242 35.7753 30.0242 34.6753C30.0242 33.5753 30.9242 32.6753 32.0242 32.6753ZM14.5117 39.4753C12.6117 39.4378 11.0392 43.6503 12.9742 44.4503L14.0742 44.9003L16.2992 42.9628L16.0742 40.0128L14.9867 39.5628C14.8492 39.5128 14.7242 39.4878 14.5992 39.4753H14.5117ZM18.5367 42.6628L18.6242 43.9128L17.6742 44.7378L20.5242 45.9003L21.3742 43.8253L18.5367 42.6628ZM27.1992 44.9753C28.2992 44.9753 29.1992 45.8753 29.1992 46.9753C29.1992 48.0753 28.2992 48.9753 27.1992 48.9753C26.0992 48.9753 25.1992 48.0753 25.1992 46.9753C25.1992 45.8753 26.0992 44.9753 27.1992 44.9753Z" fill="url(#paint0_linear_353_359)"/>
<defs>
<linearGradient id="paint0_linear_353_359" x1="12.0898" y1="32.5558" x2="51.9079" y2="32.5558" gradientUnits="userSpaceOnUse">
<stop stop-color="#ED04BC"/>
<stop offset="0.529219" stop-color="#B133E8"/>
<stop offset="1" stop-color="#6531EF"/>
</linearGradient>
</defs>
</svg>
