<svg width="64" height="64" viewBox="0 0 64 64" fill="none" xmlns="http://www.w3.org/2000/svg">
<path d="M27.4725 38.9927L24.4125 35.9327C24.1848 35.7116 23.8799 35.5879 23.5625 35.5879C23.2451 35.5879 22.9402 35.7116 22.7125 35.9327C22.4914 36.1604 22.3677 36.4653 22.3677 36.7827C22.3677 37.1001 22.4914 37.405 22.7125 37.6327L25.7725 40.6927C26.2325 41.1527 26.9925 41.1527 27.4725 40.6927C27.9525 40.2327 27.9525 39.4727 27.4725 38.9927ZM20.3925 39.9727L23.4525 43.0327C23.9125 43.4927 23.9125 44.2527 23.4525 44.7327C23.2248 44.9539 22.9199 45.0776 22.6025 45.0776C22.2851 45.0776 21.9802 44.9539 21.7525 44.7327L18.6925 41.6727C18.4714 41.445 18.3477 41.1401 18.3477 40.8227C18.3477 40.5053 18.4714 40.2004 18.6925 39.9727C18.9202 39.7516 19.2251 39.6279 19.5425 39.6279C19.8599 39.6279 20.1648 39.7516 20.3925 39.9727Z" fill="url(#paint0_linear_354_365)"/>
<path d="M54.9706 4.83237C54.9002 4.66648 54.7977 4.51617 54.669 4.39008C54.5402 4.26399 54.3878 4.16463 54.2205 4.0977C54.0532 4.03078 53.8743 3.99762 53.6941 4.00013C53.5139 4.00265 53.336 4.04079 53.1706 4.11237C52.4706 4.41237 52.1506 5.21237 52.4506 5.91237C52.5906 6.23237 52.8306 6.45237 53.1306 6.59237C53.3906 6.71237 53.6106 6.89237 53.7306 7.15237L54.0506 7.88837L52.1846 8.74837L51.8706 8.03237C51.764 7.77067 51.7568 7.47895 51.8506 7.21237C51.9306 6.93237 51.9306 6.59237 51.8106 6.27237C51.7402 6.10648 51.6377 5.95617 51.509 5.83008C51.3802 5.70399 51.2278 5.60463 51.0605 5.5377C50.8932 5.47078 50.7143 5.43762 50.5341 5.44013C50.3539 5.44265 50.176 5.48079 50.0106 5.55237C49.3106 5.85237 48.9906 6.65237 49.2906 7.35237C49.4306 7.67237 49.6706 7.89237 49.9706 8.03237C50.2306 8.15237 50.4506 8.33237 50.5706 8.59237L50.8986 9.34237L49.0126 10.2124L48.6926 9.47237C48.635 9.34387 48.6035 9.20517 48.6001 9.06438C48.5967 8.92359 48.6213 8.78352 48.6726 8.65237C48.7791 8.34532 48.7648 8.00926 48.6326 7.71237C48.5622 7.54648 48.4597 7.39617 48.331 7.27008C48.2022 7.14399 48.0498 7.04463 47.8825 6.9777C47.7152 6.91078 47.5363 6.87762 47.3561 6.88013C47.1759 6.88265 46.998 6.92079 46.8326 6.99237C46.1326 7.29237 45.8126 8.09237 46.1126 8.79237C46.2526 9.11237 46.4926 9.33237 46.7926 9.47237C47.0526 9.59237 47.2726 9.77237 47.3926 10.0324L47.7266 10.8044L46.9706 11.1524C46.7756 11.2625 46.6066 11.4133 46.4751 11.5945C46.3436 11.7758 46.2526 11.9832 46.2084 12.2028C46.1642 12.4223 46.1678 12.6488 46.2189 12.8668C46.27 13.0849 46.3675 13.2894 46.5046 13.4664L46.3506 13.3124L29.2346 30.4284C28.7587 29.2193 28.643 27.8984 28.9013 26.625C29.1597 25.3517 29.7811 24.1803 30.6906 23.2524C31.8906 22.0324 31.9506 20.0724 30.7506 18.8524C29.5506 17.6324 27.5706 17.6324 26.3706 18.8324C24.5106 20.6924 23.3306 22.9924 22.8506 25.4124C22.3106 28.1324 20.0106 30.1124 17.2506 30.3724C13.9306 30.6724 10.7106 32.0924 8.19064 34.6324C2.53064 40.3524 2.61064 49.7724 8.39064 55.3724C14.0906 60.9124 23.2106 60.8524 28.8506 55.2124C31.2701 52.7785 32.7567 49.5715 33.0506 46.1524C33.1684 44.8141 33.7177 43.5502 34.6159 42.5511C35.514 41.5519 36.7124 40.8716 38.0306 40.6124C39.1306 40.3924 40.2106 40.0124 41.2506 39.4924C42.7706 38.7324 43.3906 36.8724 42.6306 35.3524C42.2634 34.6216 41.6216 34.066 40.8456 33.8074C40.0697 33.5487 39.2229 33.6081 38.4906 33.9724C37.6415 34.4007 36.7107 34.6428 35.7605 34.6825C34.8103 34.7222 33.8625 34.5585 32.9806 34.2024L50.1046 17.0804C50.2687 17.2214 50.4601 17.3269 50.667 17.3901C50.8739 17.4534 51.0916 17.473 51.3064 17.4478C51.5213 17.4226 51.7285 17.3532 51.9152 17.2438C52.1018 17.1344 52.2637 16.9875 52.3906 16.8124L54.5506 13.1924C54.7906 12.7924 55.2706 12.6124 55.7106 12.7924C56.8506 13.2324 58.1906 12.9924 59.0706 12.0324C60.1506 10.8724 60.1706 9.05237 59.1106 7.89237C58.1106 6.79437 56.6986 6.73637 55.3266 7.30637L55.0106 6.61237C54.904 6.35067 54.8969 6.05895 54.9906 5.79237C55.1106 5.49237 55.1106 5.15237 54.9706 4.83237ZM26.4106 30.3924C27.0226 30.7464 27.4626 31.3384 27.6186 32.0444L27.2906 32.3724C26.7906 32.8724 26.7906 33.6724 27.2906 34.1524L29.2706 36.1324C29.7586 36.6204 30.5326 36.6324 31.0166 36.1684C31.5966 36.3244 32.4866 36.4504 33.0626 36.5324L33.4706 36.5924C33.5169 36.6016 33.5637 36.6082 33.6106 36.6124C33.6566 36.6184 33.7006 36.6224 33.7506 36.6324L33.7846 36.6364C34.1766 36.6804 35.2906 36.8064 36.5906 36.5524C36.6746 36.5384 36.7586 36.5204 36.8466 36.5024C37.5806 36.3544 38.4366 36.1824 38.8106 37.2524C38.9506 37.6124 38.8306 38.0324 38.3106 38.3724C38.0106 38.5724 37.2706 38.8524 36.9306 38.9324C35.2906 39.3124 34.1306 39.9724 33.0506 41.1524C31.6106 42.5124 30.7306 44.1524 30.4106 45.9324C30.1706 47.2924 29.9306 48.6324 29.3706 49.8724C28.7706 51.1524 27.9706 52.3124 26.9506 53.3324C25.7906 54.5124 24.4306 55.3924 22.9306 55.9924C21.5306 56.5524 19.9106 55.8924 19.3706 54.4924C19.2506 54.1924 19.1906 53.8524 19.1906 53.5324C19.1966 53.0284 19.3166 52.4624 19.4426 51.8684C19.7626 50.3664 20.1186 48.6804 18.7706 47.3324L14.2706 42.8324C12.2706 40.8324 12.2306 37.5724 14.2106 35.5324L14.2506 35.4924C15.8306 33.8924 17.9106 33.0724 20.0906 32.9924C21.3906 32.9324 22.5106 32.2724 23.1306 31.2524C23.6306 30.4324 24.5506 29.9924 25.4906 30.0924C25.8106 30.1324 26.1306 30.2324 26.4106 30.3924ZM18.7306 49.5324C18.9306 49.7324 18.9306 50.0524 18.7106 50.2324L16.5906 52.3524C16.3906 52.5524 16.0706 52.5524 15.8706 52.3524L11.0506 47.5324C10.8506 47.3324 10.8506 47.0124 11.0506 46.8124L13.1906 44.7124C13.3906 44.5124 13.7106 44.5124 13.9106 44.7124L18.7306 49.5324Z" fill="url(#paint1_linear_354_365)"/>
<defs>
<linearGradient id="paint0_linear_354_365" x1="18.3477" y1="40.3327" x2="27.8325" y2="40.3327" gradientUnits="userSpaceOnUse">
<stop stop-color="#ED04BC"/>
<stop offset="0.529219" stop-color="#B133E8"/>
<stop offset="1" stop-color="#6531EF"/>
</linearGradient>
<linearGradient id="paint1_linear_354_365" x1="4" y1="31.7426" x2="59.8933" y2="31.7426" gradientUnits="userSpaceOnUse">
<stop stop-color="#ED04BC"/>
<stop offset="0.529219" stop-color="#B133E8"/>
<stop offset="1" stop-color="#6531EF"/>
</linearGradient>
</defs>
</svg>
