<svg width="70" height="70" viewBox="0 0 70 70" fill="none" xmlns="http://www.w3.org/2000/svg">
<path d="M51.4486 4.18359L42.7943 4.59375L8.4 31.5684L44.1479 24.5273C44.9408 23.8984 45.6381 23.2969 46.2533 22.7363L41.2904 10.3359L43.4096 9.48828L48.017 21C55.5502 12.7695 45.2279 11.2793 51.4486 4.18359ZM48.81 22.9687L47.0053 24.5957L48.3178 27.8906C47.0736 27.8359 45.6928 27.8086 44.1479 27.7949L8.4 34.8496C8.4 34.8496 8.44648 35.1504 8.51484 35.6016C8.8375 37.7207 7.45801 39.7305 5.36074 40.1953C4.13984 40.4687 3.08984 40.7012 3.08984 40.7012L3.62988 43.5996L49.3158 47.7695L66.5424 40.4004L66.4193 34.4668C55.3314 33.2773 64.8607 29.0801 50.8334 28.041L48.81 22.9687ZM11.4557 38.9375L49.0014 41.9727L46.5268 44.1738L8.15254 40.6328L11.4557 38.9375ZM11.2711 46.2656L13.1373 59.541L12.6629 60.3887L12.7121 62.5488L15.0541 62.7676L17.392 61.9199V60.1152L16.7357 59.582L17.9799 46.8672L11.2711 46.2656ZM25.1576 47.9199V58.2422L39.5404 59.4727V49.1914L37.2572 48.9863V57.0117L27.4408 56.1914V48.125L25.1576 47.9199ZM53.8412 48.2891L49.8217 49.7793L46.4311 49.5059L48.5639 63.0957L48.0307 63.793L48.14 66.2539L50.4779 66.4863L52.6518 65.4746L52.6928 63.6699L52.1596 63.1367L53.8412 48.2891ZM25.308 60.5391L21.4252 61.8379L21.849 63.8066L35.8354 65.1875L38.7064 64.1758L38.8568 61.6738L25.308 60.5391Z" fill="url(#paint0_linear_357_293)"/>
<defs>
<linearGradient id="paint0_linear_357_293" x1="3.08984" y1="35.335" x2="66.5424" y2="35.335" gradientUnits="userSpaceOnUse">
<stop stop-color="#ED04BC"/>
<stop offset="0.529219" stop-color="#B133E8"/>
<stop offset="1" stop-color="#6531EF"/>
</linearGradient>
</defs>
</svg>
